<mxfile host="app.diagrams.net" modified="2023-05-19T21:39:24.458Z" agent="Mozilla/5.0 (Windows NT 10.0; Win64; x64) AppleWebKit/537.36 (KHTML, like Gecko) Chrome/112.0.0.0 Safari/537.36" etag="MR8ajUmd98NrVo07tDdE" version="21.1.5" type="device">
  <diagram id="1kfMa22_x0G0htxuU-_u" name="Page-1">
    <mxGraphModel dx="1434" dy="731" grid="1" gridSize="10" guides="1" tooltips="1" connect="1" arrows="1" fold="1" page="1" pageScale="1" pageWidth="850" pageHeight="1100" math="0" shadow="0">
      <root>
        <mxCell id="0" />
        <mxCell id="1" parent="0" />
        <mxCell id="NoFoULBmx6jZTGomRACd-1" value="" style="whiteSpace=wrap;html=1;aspect=fixed;" parent="1" vertex="1">
          <mxGeometry x="40" y="90" width="200" height="200" as="geometry" />
        </mxCell>
        <mxCell id="NoFoULBmx6jZTGomRACd-2" value="" style="rounded=1;whiteSpace=wrap;html=1;" parent="1" vertex="1">
          <mxGeometry x="78.75" y="60" width="125" height="30" as="geometry" />
        </mxCell>
        <mxCell id="NoFoULBmx6jZTGomRACd-4" value="Welcome" style="text;html=1;strokeColor=none;fillColor=none;align=center;verticalAlign=middle;whiteSpace=wrap;rounded=0;" parent="1" vertex="1">
          <mxGeometry x="57.5" y="90" width="160" height="50" as="geometry" />
        </mxCell>
        <mxCell id="NoFoULBmx6jZTGomRACd-5" value="" style="whiteSpace=wrap;html=1;aspect=fixed;" parent="1" vertex="1">
          <mxGeometry x="80" y="140" width="120" height="120" as="geometry" />
        </mxCell>
        <mxCell id="NoFoULBmx6jZTGomRACd-6" value="Username:" style="text;html=1;strokeColor=none;fillColor=none;align=center;verticalAlign=middle;whiteSpace=wrap;rounded=0;fontSize=9;" parent="1" vertex="1">
          <mxGeometry x="77.5" y="150" width="60" height="30" as="geometry" />
        </mxCell>
        <mxCell id="NoFoULBmx6jZTGomRACd-7" value="Password:" style="text;html=1;strokeColor=none;fillColor=none;align=center;verticalAlign=middle;whiteSpace=wrap;rounded=0;fontSize=9;" parent="1" vertex="1">
          <mxGeometry x="77.5" y="180" width="60" height="30" as="geometry" />
        </mxCell>
        <mxCell id="NoFoULBmx6jZTGomRACd-8" value="" style="rounded=1;whiteSpace=wrap;html=1;fontSize=9;" parent="1" vertex="1">
          <mxGeometry x="137.5" y="157.5" width="50" height="15" as="geometry" />
        </mxCell>
        <mxCell id="NoFoULBmx6jZTGomRACd-9" value="" style="rounded=1;whiteSpace=wrap;html=1;fontSize=9;" parent="1" vertex="1">
          <mxGeometry x="137.5" y="187.5" width="50" height="15" as="geometry" />
        </mxCell>
        <mxCell id="NoFoULBmx6jZTGomRACd-10" value="" style="rounded=1;whiteSpace=wrap;html=1;fontSize=9;" parent="1" vertex="1">
          <mxGeometry x="108.75" y="210" width="57.5" height="20" as="geometry" />
        </mxCell>
        <mxCell id="NoFoULBmx6jZTGomRACd-11" value="Log In" style="text;html=1;strokeColor=none;fillColor=none;align=center;verticalAlign=middle;whiteSpace=wrap;rounded=0;fontSize=9;" parent="1" vertex="1">
          <mxGeometry x="107.5" y="205" width="60" height="30" as="geometry" />
        </mxCell>
        <mxCell id="NoFoULBmx6jZTGomRACd-12" value="New to Study Engine? &lt;br&gt;Click Here" style="text;html=1;strokeColor=none;fillColor=none;align=center;verticalAlign=middle;whiteSpace=wrap;rounded=0;fontSize=9;" parent="1" vertex="1">
          <mxGeometry x="80" y="230" width="117.5" height="30" as="geometry" />
        </mxCell>
        <mxCell id="NoFoULBmx6jZTGomRACd-13" value="" style="whiteSpace=wrap;html=1;aspect=fixed;fontSize=9;" parent="1" vertex="1">
          <mxGeometry x="40.5" y="360" width="200" height="200" as="geometry" />
        </mxCell>
        <mxCell id="NoFoULBmx6jZTGomRACd-14" value="" style="rounded=1;whiteSpace=wrap;html=1;fontSize=9;" parent="1" vertex="1">
          <mxGeometry x="78.75" y="330" width="128.75" height="30" as="geometry" />
        </mxCell>
        <mxCell id="NoFoULBmx6jZTGomRACd-15" value="Account Creation" style="text;html=1;strokeColor=none;fillColor=none;align=center;verticalAlign=middle;whiteSpace=wrap;rounded=0;fontSize=12;" parent="1" vertex="1">
          <mxGeometry x="87.5" y="330" width="110" height="30" as="geometry" />
        </mxCell>
        <mxCell id="NoFoULBmx6jZTGomRACd-17" value="" style="rounded=0;whiteSpace=wrap;html=1;fontSize=12;" parent="1" vertex="1">
          <mxGeometry x="74" y="410" width="132" height="105" as="geometry" />
        </mxCell>
        <mxCell id="NoFoULBmx6jZTGomRACd-20" value="Username:&amp;nbsp;" style="text;html=1;strokeColor=none;fillColor=none;align=center;verticalAlign=middle;whiteSpace=wrap;rounded=0;fontSize=9;" parent="1" vertex="1">
          <mxGeometry x="74" y="425" width="60" height="30" as="geometry" />
        </mxCell>
        <mxCell id="NoFoULBmx6jZTGomRACd-21" value="Password:&amp;nbsp;" style="text;html=1;strokeColor=none;fillColor=none;align=center;verticalAlign=middle;whiteSpace=wrap;rounded=0;fontSize=9;" parent="1" vertex="1">
          <mxGeometry x="74" y="455" width="60" height="30" as="geometry" />
        </mxCell>
        <mxCell id="NoFoULBmx6jZTGomRACd-24" value="" style="rounded=1;whiteSpace=wrap;html=1;fontSize=9;" parent="1" vertex="1">
          <mxGeometry x="128.75" y="432.5" width="72.5" height="15" as="geometry" />
        </mxCell>
        <mxCell id="NoFoULBmx6jZTGomRACd-25" value="" style="rounded=1;whiteSpace=wrap;html=1;fontSize=9;" parent="1" vertex="1">
          <mxGeometry x="128.75" y="462.5" width="72.5" height="15" as="geometry" />
        </mxCell>
        <mxCell id="NoFoULBmx6jZTGomRACd-26" value="" style="rounded=1;whiteSpace=wrap;html=1;fontSize=9;" parent="1" vertex="1">
          <mxGeometry x="148.75" y="490" width="50" height="15" as="geometry" />
        </mxCell>
        <mxCell id="NoFoULBmx6jZTGomRACd-27" value="Confirm" style="text;html=1;strokeColor=none;fillColor=none;align=center;verticalAlign=middle;whiteSpace=wrap;rounded=0;fontSize=9;" parent="1" vertex="1">
          <mxGeometry x="145" y="483.5" width="60" height="30" as="geometry" />
        </mxCell>
        <mxCell id="NoFoULBmx6jZTGomRACd-29" value="" style="rounded=1;whiteSpace=wrap;html=1;fontSize=9;" parent="1" vertex="1">
          <mxGeometry x="87.5" y="492.5" width="50" height="15" as="geometry" />
        </mxCell>
        <mxCell id="NoFoULBmx6jZTGomRACd-28" value="Cancel" style="text;html=1;strokeColor=none;fillColor=none;align=center;verticalAlign=middle;whiteSpace=wrap;rounded=0;fontSize=9;" parent="1" vertex="1">
          <mxGeometry x="85" y="483.5" width="60" height="30" as="geometry" />
        </mxCell>
        <mxCell id="NoFoULBmx6jZTGomRACd-31" value="" style="curved=1;endArrow=classic;html=1;rounded=0;fontSize=9;entryX=0.098;entryY=0.1;entryDx=0;entryDy=0;entryPerimeter=0;" parent="1" target="NoFoULBmx6jZTGomRACd-13" edge="1">
          <mxGeometry width="50" height="50" relative="1" as="geometry">
            <mxPoint x="110" y="250" as="sourcePoint" />
            <mxPoint x="60" y="290" as="targetPoint" />
            <Array as="points">
              <mxPoint x="10" y="290" />
            </Array>
          </mxGeometry>
        </mxCell>
        <mxCell id="NoFoULBmx6jZTGomRACd-32" value="" style="rounded=0;whiteSpace=wrap;html=1;fontSize=9;" parent="1" vertex="1">
          <mxGeometry x="275.01" y="220" width="220" height="280" as="geometry" />
        </mxCell>
        <mxCell id="NoFoULBmx6jZTGomRACd-3" value="Log In Screen" style="text;html=1;strokeColor=none;fillColor=none;align=center;verticalAlign=middle;whiteSpace=wrap;rounded=0;" parent="1" vertex="1">
          <mxGeometry x="78.75" y="60" width="120" height="30" as="geometry" />
        </mxCell>
        <mxCell id="NoFoULBmx6jZTGomRACd-34" value="" style="rounded=1;whiteSpace=wrap;html=1;fontSize=9;" parent="1" vertex="1">
          <mxGeometry x="320.63" y="190" width="128.75" height="30" as="geometry" />
        </mxCell>
        <mxCell id="NoFoULBmx6jZTGomRACd-35" value="Server" style="text;html=1;strokeColor=none;fillColor=none;align=center;verticalAlign=middle;whiteSpace=wrap;rounded=0;" parent="1" vertex="1">
          <mxGeometry x="330.32" y="190" width="109.37" height="30" as="geometry" />
        </mxCell>
        <mxCell id="NoFoULBmx6jZTGomRACd-36" value="" style="rounded=0;whiteSpace=wrap;html=1;fontSize=9;" parent="1" vertex="1">
          <mxGeometry x="288" y="290" width="65" height="30" as="geometry" />
        </mxCell>
        <mxCell id="NoFoULBmx6jZTGomRACd-37" value="Get User" style="text;html=1;strokeColor=none;fillColor=none;align=center;verticalAlign=middle;whiteSpace=wrap;rounded=0;fontSize=9;" parent="1" vertex="1">
          <mxGeometry x="293" y="290" width="57" height="30" as="geometry" />
        </mxCell>
        <mxCell id="NoFoULBmx6jZTGomRACd-39" value="" style="rounded=0;whiteSpace=wrap;html=1;fontSize=9;" parent="1" vertex="1">
          <mxGeometry x="288" y="340" width="65" height="30" as="geometry" />
        </mxCell>
        <mxCell id="NoFoULBmx6jZTGomRACd-40" value="Create User" style="text;html=1;strokeColor=none;fillColor=none;align=center;verticalAlign=middle;whiteSpace=wrap;rounded=0;fontSize=9;" parent="1" vertex="1">
          <mxGeometry x="290.5" y="340" width="60" height="30" as="geometry" />
        </mxCell>
        <mxCell id="NoFoULBmx6jZTGomRACd-41" value="" style="curved=1;endArrow=classic;html=1;rounded=0;fontSize=9;entryX=0;entryY=0;entryDx=0;entryDy=0;" parent="1" target="NoFoULBmx6jZTGomRACd-36" edge="1">
          <mxGeometry width="50" height="50" relative="1" as="geometry">
            <mxPoint x="160" y="220" as="sourcePoint" />
            <mxPoint x="210" y="170" as="targetPoint" />
            <Array as="points">
              <mxPoint x="220" y="210" />
            </Array>
          </mxGeometry>
        </mxCell>
        <mxCell id="NoFoULBmx6jZTGomRACd-42" value="" style="curved=1;endArrow=classic;html=1;rounded=0;fontSize=9;entryX=0.042;entryY=0.667;entryDx=0;entryDy=0;entryPerimeter=0;" parent="1" target="NoFoULBmx6jZTGomRACd-40" edge="1">
          <mxGeometry width="50" height="50" relative="1" as="geometry">
            <mxPoint x="200" y="500" as="sourcePoint" />
            <mxPoint x="240" y="470" as="targetPoint" />
            <Array as="points">
              <mxPoint x="240" y="520" />
              <mxPoint x="230" y="320" />
            </Array>
          </mxGeometry>
        </mxCell>
        <mxCell id="NoFoULBmx6jZTGomRACd-43" value="" style="curved=1;endArrow=classic;html=1;rounded=0;fontSize=9;entryX=0.05;entryY=0.8;entryDx=0;entryDy=0;entryPerimeter=0;exitX=0;exitY=0.75;exitDx=0;exitDy=0;" parent="1" target="NoFoULBmx6jZTGomRACd-1" edge="1" source="NoFoULBmx6jZTGomRACd-28">
          <mxGeometry width="50" height="50" relative="1" as="geometry">
            <mxPoint x="90" y="520" as="sourcePoint" />
            <mxPoint x="140" y="470" as="targetPoint" />
            <Array as="points">
              <mxPoint y="470" />
              <mxPoint x="10" y="310" />
            </Array>
          </mxGeometry>
        </mxCell>
        <mxCell id="NoFoULBmx6jZTGomRACd-44" value="" style="curved=1;endArrow=classic;html=1;rounded=0;fontSize=9;exitX=0;exitY=0;exitDx=0;exitDy=0;entryX=1;entryY=1;entryDx=0;entryDy=0;" parent="1" source="NoFoULBmx6jZTGomRACd-40" target="NoFoULBmx6jZTGomRACd-1" edge="1">
          <mxGeometry width="50" height="50" relative="1" as="geometry">
            <mxPoint x="310" y="310" as="sourcePoint" />
            <mxPoint x="240" y="280" as="targetPoint" />
            <Array as="points">
              <mxPoint x="260" y="320" />
            </Array>
          </mxGeometry>
        </mxCell>
        <mxCell id="NoFoULBmx6jZTGomRACd-45" value="" style="whiteSpace=wrap;html=1;aspect=fixed;" parent="1" vertex="1">
          <mxGeometry x="560" y="90" width="200" height="200" as="geometry" />
        </mxCell>
        <mxCell id="NoFoULBmx6jZTGomRACd-46" value="" style="rounded=1;whiteSpace=wrap;html=1;fontSize=9;" parent="1" vertex="1">
          <mxGeometry x="595.62" y="60" width="128.75" height="30" as="geometry" />
        </mxCell>
        <mxCell id="NoFoULBmx6jZTGomRACd-47" value="" style="rounded=1;whiteSpace=wrap;html=1;fontSize=9;" parent="1" vertex="1">
          <mxGeometry x="340" y="235" width="85" height="30" as="geometry" />
        </mxCell>
        <mxCell id="NoFoULBmx6jZTGomRACd-48" value="User Authentication" style="text;html=1;strokeColor=none;fillColor=none;align=center;verticalAlign=middle;whiteSpace=wrap;rounded=0;fontSize=9;" parent="1" vertex="1">
          <mxGeometry x="353" y="235" width="60" height="30" as="geometry" />
        </mxCell>
        <mxCell id="NoFoULBmx6jZTGomRACd-49" value="" style="curved=1;endArrow=classic;html=1;rounded=0;fontSize=9;entryX=0.099;entryY=0.967;entryDx=0;entryDy=0;entryPerimeter=0;" parent="1" target="NoFoULBmx6jZTGomRACd-47" edge="1">
          <mxGeometry width="50" height="50" relative="1" as="geometry">
            <mxPoint x="345" y="290" as="sourcePoint" />
            <mxPoint x="360" y="220" as="targetPoint" />
            <Array as="points">
              <mxPoint x="345" y="290" />
            </Array>
          </mxGeometry>
        </mxCell>
        <mxCell id="NoFoULBmx6jZTGomRACd-51" value="" style="curved=1;endArrow=classic;html=1;rounded=0;fontSize=9;entryX=1;entryY=0.5;entryDx=0;entryDy=0;exitX=0;exitY=0.75;exitDx=0;exitDy=0;startArrow=none;" parent="1" source="NoFoULBmx6jZTGomRACd-54" target="NoFoULBmx6jZTGomRACd-1" edge="1">
          <mxGeometry width="50" height="50" relative="1" as="geometry">
            <mxPoint x="340" y="130" as="sourcePoint" />
            <mxPoint x="390" y="80" as="targetPoint" />
            <Array as="points" />
          </mxGeometry>
        </mxCell>
        <mxCell id="NoFoULBmx6jZTGomRACd-56" value="" style="curved=1;endArrow=classic;html=1;rounded=0;fontSize=9;entryX=0.01;entryY=0.389;entryDx=0;entryDy=0;startArrow=none;entryPerimeter=0;" parent="1" target="NoFoULBmx6jZTGomRACd-45" edge="1">
          <mxGeometry width="50" height="50" relative="1" as="geometry">
            <mxPoint x="520" y="200" as="sourcePoint" />
            <mxPoint x="560" y="102" as="targetPoint" />
            <Array as="points">
              <mxPoint x="530" y="170" />
            </Array>
          </mxGeometry>
        </mxCell>
        <mxCell id="NoFoULBmx6jZTGomRACd-57" value="" style="rounded=0;whiteSpace=wrap;html=1;fontSize=9;" parent="1" vertex="1">
          <mxGeometry x="470" y="195" width="50" height="10" as="geometry" />
        </mxCell>
        <mxCell id="NoFoULBmx6jZTGomRACd-59" value="Main Page" style="text;html=1;strokeColor=none;fillColor=none;align=center;verticalAlign=middle;whiteSpace=wrap;rounded=0;" parent="1" vertex="1">
          <mxGeometry x="595.62" y="60" width="120" height="30" as="geometry" />
        </mxCell>
        <mxCell id="NoFoULBmx6jZTGomRACd-60" value="" style="shape=cylinder3;whiteSpace=wrap;html=1;boundedLbl=1;backgroundOutline=1;size=15;fontSize=9;" parent="1" vertex="1">
          <mxGeometry x="295.31" y="630" width="170" height="50" as="geometry" />
        </mxCell>
        <mxCell id="NoFoULBmx6jZTGomRACd-61" value="" style="shape=cylinder3;whiteSpace=wrap;html=1;boundedLbl=1;backgroundOutline=1;size=15;fontSize=9;" parent="1" vertex="1">
          <mxGeometry x="295.31" y="610" width="170" height="50" as="geometry" />
        </mxCell>
        <mxCell id="NoFoULBmx6jZTGomRACd-62" value="" style="shape=cylinder3;whiteSpace=wrap;html=1;boundedLbl=1;backgroundOutline=1;size=15;fontSize=9;" parent="1" vertex="1">
          <mxGeometry x="295.31" y="590" width="170" height="50" as="geometry" />
        </mxCell>
        <mxCell id="NoFoULBmx6jZTGomRACd-63" value="" style="shape=cylinder3;whiteSpace=wrap;html=1;boundedLbl=1;backgroundOutline=1;size=15;fontSize=9;" parent="1" vertex="1">
          <mxGeometry x="295.31" y="570" width="170" height="50" as="geometry" />
        </mxCell>
        <mxCell id="NoFoULBmx6jZTGomRACd-64" value="Database" style="text;html=1;strokeColor=none;fillColor=none;align=center;verticalAlign=middle;whiteSpace=wrap;rounded=0;fontSize=9;" parent="1" vertex="1">
          <mxGeometry x="327.5" y="570" width="110" height="30" as="geometry" />
        </mxCell>
        <mxCell id="NoFoULBmx6jZTGomRACd-65" value="" style="curved=1;endArrow=classic;html=1;rounded=0;fontSize=9;entryX=0.568;entryY=0.964;entryDx=0;entryDy=0;entryPerimeter=0;" parent="1" target="NoFoULBmx6jZTGomRACd-32" edge="1">
          <mxGeometry width="50" height="50" relative="1" as="geometry">
            <mxPoint x="420" y="590" as="sourcePoint" />
            <mxPoint x="470" y="540" as="targetPoint" />
            <Array as="points">
              <mxPoint x="430" y="560" />
            </Array>
          </mxGeometry>
        </mxCell>
        <mxCell id="NoFoULBmx6jZTGomRACd-66" value="" style="curved=1;endArrow=classic;html=1;rounded=0;fontSize=9;entryX=0.682;entryY=0.964;entryDx=0;entryDy=0;entryPerimeter=0;" parent="1" edge="1">
          <mxGeometry width="50" height="50" relative="1" as="geometry">
            <mxPoint x="340.03999999999996" y="482.50000000000006" as="sourcePoint" />
            <mxPoint x="340" y="582.58" as="targetPoint" />
            <Array as="points">
              <mxPoint x="330" y="560" />
            </Array>
          </mxGeometry>
        </mxCell>
        <mxCell id="NoFoULBmx6jZTGomRACd-54" value="" style="rounded=0;whiteSpace=wrap;html=1;fontSize=9;" parent="1" vertex="1">
          <mxGeometry x="260.87" y="200.38" width="40.63" height="9.25" as="geometry" />
        </mxCell>
        <mxCell id="NoFoULBmx6jZTGomRACd-70" value="" style="curved=1;endArrow=none;html=1;rounded=0;fontSize=9;entryX=1;entryY=0.5;entryDx=0;entryDy=0;" parent="1" target="NoFoULBmx6jZTGomRACd-54" edge="1">
          <mxGeometry width="50" height="50" relative="1" as="geometry">
            <mxPoint x="340" y="250" as="sourcePoint" />
            <mxPoint x="240" y="190" as="targetPoint" />
            <Array as="points" />
          </mxGeometry>
        </mxCell>
        <mxCell id="NoFoULBmx6jZTGomRACd-55" value="Failed" style="text;html=1;strokeColor=none;fillColor=none;align=center;verticalAlign=middle;whiteSpace=wrap;rounded=0;fontSize=9;" parent="1" vertex="1">
          <mxGeometry x="261.5" y="190" width="40" height="30" as="geometry" />
        </mxCell>
        <mxCell id="NoFoULBmx6jZTGomRACd-58" value="Success" style="text;html=1;strokeColor=none;fillColor=none;align=center;verticalAlign=middle;whiteSpace=wrap;rounded=0;fontSize=9;" parent="1" vertex="1">
          <mxGeometry x="465" y="185" width="60" height="30" as="geometry" />
        </mxCell>
        <mxCell id="NoFoULBmx6jZTGomRACd-71" value="" style="curved=1;endArrow=none;html=1;rounded=0;fontSize=9;exitX=1;exitY=0.5;exitDx=0;exitDy=0;" parent="1" source="NoFoULBmx6jZTGomRACd-47" edge="1">
          <mxGeometry width="50" height="50" relative="1" as="geometry">
            <mxPoint x="425" y="250" as="sourcePoint" />
            <mxPoint x="470" y="200" as="targetPoint" />
            <Array as="points" />
          </mxGeometry>
        </mxCell>
        <mxCell id="NoFoULBmx6jZTGomRACd-72" value="" style="whiteSpace=wrap;html=1;aspect=fixed;" parent="1" vertex="1">
          <mxGeometry x="555.62" y="333.5" width="200" height="200" as="geometry" />
        </mxCell>
        <mxCell id="NoFoULBmx6jZTGomRACd-73" value="" style="rounded=1;whiteSpace=wrap;html=1;fontSize=9;" parent="1" vertex="1">
          <mxGeometry x="591.24" y="303.5" width="128.75" height="30" as="geometry" />
        </mxCell>
        <mxCell id="NoFoULBmx6jZTGomRACd-74" value="Edit Page" style="text;html=1;strokeColor=none;fillColor=none;align=center;verticalAlign=middle;whiteSpace=wrap;rounded=0;" parent="1" vertex="1">
          <mxGeometry x="591.24" y="303.5" width="120" height="30" as="geometry" />
        </mxCell>
        <mxCell id="NoFoULBmx6jZTGomRACd-75" value="" style="whiteSpace=wrap;html=1;aspect=fixed;" parent="1" vertex="1">
          <mxGeometry x="555.62" y="580" width="200" height="200" as="geometry" />
        </mxCell>
        <mxCell id="NoFoULBmx6jZTGomRACd-76" value="" style="rounded=1;whiteSpace=wrap;html=1;fontSize=9;" parent="1" vertex="1">
          <mxGeometry x="591.24" y="550" width="128.75" height="30" as="geometry" />
        </mxCell>
        <mxCell id="NoFoULBmx6jZTGomRACd-77" value="Flashcard Page" style="text;html=1;strokeColor=none;fillColor=none;align=center;verticalAlign=middle;whiteSpace=wrap;rounded=0;" parent="1" vertex="1">
          <mxGeometry x="591.24" y="550" width="120" height="30" as="geometry" />
        </mxCell>
        <mxCell id="NoFoULBmx6jZTGomRACd-78" value="Welcome back, User*" style="text;html=1;strokeColor=none;fillColor=none;align=center;verticalAlign=middle;whiteSpace=wrap;rounded=0;" parent="1" vertex="1">
          <mxGeometry x="580" y="90" width="160" height="50" as="geometry" />
        </mxCell>
        <mxCell id="NoFoULBmx6jZTGomRACd-79" value="" style="shape=note;whiteSpace=wrap;html=1;backgroundOutline=1;darkOpacity=0.05;fontSize=9;" parent="1" vertex="1">
          <mxGeometry x="770" y="10" width="60" height="80" as="geometry" />
        </mxCell>
        <mxCell id="NoFoULBmx6jZTGomRACd-80" value="Current user&#39;s first name will be displayed here" style="text;html=1;strokeColor=none;fillColor=none;align=center;verticalAlign=middle;whiteSpace=wrap;rounded=0;fontSize=9;" parent="1" vertex="1">
          <mxGeometry x="770" y="50" width="60" height="30" as="geometry" />
        </mxCell>
        <mxCell id="NoFoULBmx6jZTGomRACd-81" value="" style="endArrow=classic;html=1;rounded=0;fontSize=9;entryX=0.875;entryY=0.4;entryDx=0;entryDy=0;entryPerimeter=0;" parent="1" target="NoFoULBmx6jZTGomRACd-78" edge="1">
          <mxGeometry width="50" height="50" relative="1" as="geometry">
            <mxPoint x="770" y="90" as="sourcePoint" />
            <mxPoint x="820" y="40" as="targetPoint" />
          </mxGeometry>
        </mxCell>
        <mxCell id="NoFoULBmx6jZTGomRACd-84" value="" style="rounded=0;whiteSpace=wrap;html=1;fontSize=9;" parent="1" vertex="1">
          <mxGeometry x="570" y="180" width="180" height="100" as="geometry" />
        </mxCell>
        <mxCell id="NoFoULBmx6jZTGomRACd-85" value="" style="rounded=0;whiteSpace=wrap;html=1;fontSize=9;" parent="1" vertex="1">
          <mxGeometry x="740" y="187.5" width="10" height="85" as="geometry" />
        </mxCell>
        <mxCell id="NoFoULBmx6jZTGomRACd-86" value="" style="triangle;whiteSpace=wrap;html=1;fontSize=9;rotation=-90;" parent="1" vertex="1">
          <mxGeometry x="740" y="177.5" width="10" height="10" as="geometry" />
        </mxCell>
        <mxCell id="NoFoULBmx6jZTGomRACd-87" value="" style="triangle;whiteSpace=wrap;html=1;fontSize=9;rotation=-90;direction=west;" parent="1" vertex="1">
          <mxGeometry x="740" y="270" width="10" height="10" as="geometry" />
        </mxCell>
        <mxCell id="NoFoULBmx6jZTGomRACd-88" value="" style="shape=process;whiteSpace=wrap;html=1;backgroundOutline=1;fontSize=9;" parent="1" vertex="1">
          <mxGeometry x="740" y="192.5" width="10" height="15" as="geometry" />
        </mxCell>
        <mxCell id="NoFoULBmx6jZTGomRACd-89" value="Subject 1" style="rounded=1;whiteSpace=wrap;html=1;fontSize=9;" parent="1" vertex="1">
          <mxGeometry x="570" y="190" width="160" height="20" as="geometry" />
        </mxCell>
        <mxCell id="NoFoULBmx6jZTGomRACd-90" value="Subject 2" style="rounded=1;whiteSpace=wrap;html=1;fontSize=9;" parent="1" vertex="1">
          <mxGeometry x="570" y="215" width="160" height="20" as="geometry" />
        </mxCell>
        <mxCell id="NoFoULBmx6jZTGomRACd-91" value="Subject 3" style="rounded=1;whiteSpace=wrap;html=1;fontSize=9;" parent="1" vertex="1">
          <mxGeometry x="570" y="240" width="160" height="20" as="geometry" />
        </mxCell>
        <mxCell id="NoFoULBmx6jZTGomRACd-92" value="Subject 4" style="rounded=1;whiteSpace=wrap;html=1;fontSize=9;" parent="1" vertex="1">
          <mxGeometry x="570" y="265" width="160" height="15" as="geometry" />
        </mxCell>
        <mxCell id="NoFoULBmx6jZTGomRACd-105" value="Flashcard 1" style="rounded=0;whiteSpace=wrap;html=1;fontSize=9;" parent="1" vertex="1">
          <mxGeometry x="562" y="640" width="50" height="30" as="geometry" />
        </mxCell>
        <mxCell id="NoFoULBmx6jZTGomRACd-106" value="Shuffle" style="rounded=1;whiteSpace=wrap;html=1;fontSize=9;" parent="1" vertex="1">
          <mxGeometry x="619" y="610" width="61" height="20" as="geometry" />
        </mxCell>
        <mxCell id="NoFoULBmx6jZTGomRACd-107" value="Course Name" style="text;html=1;strokeColor=none;fillColor=none;align=center;verticalAlign=middle;whiteSpace=wrap;rounded=0;fontSize=9;" parent="1" vertex="1">
          <mxGeometry x="619" y="580" width="60" height="30" as="geometry" />
        </mxCell>
        <mxCell id="NoFoULBmx6jZTGomRACd-108" value="Flashcard 5" style="rounded=0;whiteSpace=wrap;html=1;fontSize=9;" parent="1" vertex="1">
          <mxGeometry x="630.62" y="680" width="50" height="30" as="geometry" />
        </mxCell>
        <mxCell id="NoFoULBmx6jZTGomRACd-109" value="Flashcard 4" style="rounded=0;whiteSpace=wrap;html=1;fontSize=9;" parent="1" vertex="1">
          <mxGeometry x="561.86" y="680" width="50" height="30" as="geometry" />
        </mxCell>
        <mxCell id="NoFoULBmx6jZTGomRACd-110" value="Flashcard 2" style="rounded=0;whiteSpace=wrap;html=1;fontSize=9;" parent="1" vertex="1">
          <mxGeometry x="630.62" y="640" width="50" height="30" as="geometry" />
        </mxCell>
        <mxCell id="NoFoULBmx6jZTGomRACd-111" value="Flashcard 6" style="rounded=0;whiteSpace=wrap;html=1;fontSize=9;" parent="1" vertex="1">
          <mxGeometry x="700" y="680" width="50" height="30" as="geometry" />
        </mxCell>
        <mxCell id="NoFoULBmx6jZTGomRACd-112" value="Flashcard 3" style="rounded=0;whiteSpace=wrap;html=1;fontSize=9;" parent="1" vertex="1">
          <mxGeometry x="700" y="640" width="50" height="30" as="geometry" />
        </mxCell>
        <mxCell id="NoFoULBmx6jZTGomRACd-113" value="Back" style="rounded=1;whiteSpace=wrap;html=1;fontSize=9;" parent="1" vertex="1">
          <mxGeometry x="569" y="595" width="36" height="15" as="geometry" />
        </mxCell>
        <mxCell id="NoFoULBmx6jZTGomRACd-115" value="Log Out" style="rounded=1;whiteSpace=wrap;html=1;fontSize=9;" parent="1" vertex="1">
          <mxGeometry x="561.86" y="96" width="38.14" height="10" as="geometry" />
        </mxCell>
        <mxCell id="NoFoULBmx6jZTGomRACd-117" value="" style="curved=1;endArrow=classic;html=1;rounded=0;fontSize=9;exitX=0;exitY=0;exitDx=0;exitDy=0;entryX=1.002;entryY=0.217;entryDx=0;entryDy=0;entryPerimeter=0;" parent="1" source="NoFoULBmx6jZTGomRACd-115" target="NoFoULBmx6jZTGomRACd-1" edge="1">
          <mxGeometry width="50" height="50" relative="1" as="geometry">
            <mxPoint x="550" y="90" as="sourcePoint" />
            <mxPoint x="600" y="40" as="targetPoint" />
            <Array as="points">
              <mxPoint x="550" y="40" />
            </Array>
          </mxGeometry>
        </mxCell>
        <mxCell id="NoFoULBmx6jZTGomRACd-118" value="Shuffles &lt;u&gt;up to&lt;/u&gt;&amp;nbsp;15 random questions from the selected course" style="shape=note;whiteSpace=wrap;html=1;backgroundOutline=1;darkOpacity=0.05;fontSize=9;verticalAlign=bottom;" parent="1" vertex="1">
          <mxGeometry x="770" y="545" width="60" height="105" as="geometry" />
        </mxCell>
        <mxCell id="NoFoULBmx6jZTGomRACd-119" value="" style="endArrow=classic;html=1;rounded=0;fontSize=9;exitX=0;exitY=0.5;exitDx=0;exitDy=0;exitPerimeter=0;entryX=1;entryY=0.25;entryDx=0;entryDy=0;" parent="1" source="NoFoULBmx6jZTGomRACd-118" target="NoFoULBmx6jZTGomRACd-106" edge="1">
          <mxGeometry width="50" height="50" relative="1" as="geometry">
            <mxPoint x="790" y="520" as="sourcePoint" />
            <mxPoint x="840" y="470" as="targetPoint" />
          </mxGeometry>
        </mxCell>
        <mxCell id="NoFoULBmx6jZTGomRACd-120" value="Flashcard 7" style="rounded=0;whiteSpace=wrap;html=1;fontSize=9;" parent="1" vertex="1">
          <mxGeometry x="562" y="720" width="50" height="30" as="geometry" />
        </mxCell>
        <mxCell id="NoFoULBmx6jZTGomRACd-121" value="Flashcard 8" style="rounded=0;whiteSpace=wrap;html=1;fontSize=9;" parent="1" vertex="1">
          <mxGeometry x="630.62" y="720" width="50" height="30" as="geometry" />
        </mxCell>
        <mxCell id="NoFoULBmx6jZTGomRACd-122" value="Flashcard 9" style="rounded=0;whiteSpace=wrap;html=1;fontSize=9;" parent="1" vertex="1">
          <mxGeometry x="700" y="720" width="50" height="30" as="geometry" />
        </mxCell>
        <mxCell id="NoFoULBmx6jZTGomRACd-123" value="Get Course" style="rounded=0;whiteSpace=wrap;html=1;fontSize=9;" parent="1" vertex="1">
          <mxGeometry x="425" y="310" width="60" height="30" as="geometry" />
        </mxCell>
        <mxCell id="NoFoULBmx6jZTGomRACd-124" value="" style="curved=1;endArrow=classic;html=1;rounded=0;fontSize=9;entryX=0.75;entryY=0;entryDx=0;entryDy=0;fillColor=#0050ef;strokeColor=#000000;" parent="1" target="NoFoULBmx6jZTGomRACd-123" edge="1">
          <mxGeometry width="50" height="50" relative="1" as="geometry">
            <mxPoint x="580" y="200" as="sourcePoint" />
            <mxPoint x="510" y="270" as="targetPoint" />
            <Array as="points">
              <mxPoint x="530" y="270" />
            </Array>
          </mxGeometry>
        </mxCell>
        <mxCell id="NoFoULBmx6jZTGomRACd-127" value="Add Course" style="rounded=1;whiteSpace=wrap;html=1;fontSize=9;" parent="1" vertex="1">
          <mxGeometry x="574.62" y="150" width="56" height="15" as="geometry" />
        </mxCell>
        <mxCell id="NoFoULBmx6jZTGomRACd-132" value="" style="endArrow=classic;html=1;rounded=0;fontSize=9;exitX=1;exitY=0.5;exitDx=0;exitDy=0;fillColor=#e51400;strokeColor=#000000;" parent="1" source="NoFoULBmx6jZTGomRACd-123" edge="1">
          <mxGeometry width="50" height="50" relative="1" as="geometry">
            <mxPoint x="520" y="370" as="sourcePoint" />
            <mxPoint x="560" y="360" as="targetPoint" />
          </mxGeometry>
        </mxCell>
        <mxCell id="NoFoULBmx6jZTGomRACd-135" value="Create Course" style="rounded=0;whiteSpace=wrap;html=1;fontSize=9;" parent="1" vertex="1">
          <mxGeometry x="425" y="265" width="60" height="30" as="geometry" />
        </mxCell>
        <mxCell id="NoFoULBmx6jZTGomRACd-136" value="" style="curved=1;endArrow=classic;html=1;rounded=0;fontSize=9;entryX=0.75;entryY=0;entryDx=0;entryDy=0;exitX=0;exitY=0.5;exitDx=0;exitDy=0;" parent="1" source="NoFoULBmx6jZTGomRACd-127" target="NoFoULBmx6jZTGomRACd-135" edge="1">
          <mxGeometry width="50" height="50" relative="1" as="geometry">
            <mxPoint x="520" y="210" as="sourcePoint" />
            <mxPoint x="470" y="260" as="targetPoint" />
            <Array as="points">
              <mxPoint x="540" y="190" />
              <mxPoint x="510" y="220" />
            </Array>
          </mxGeometry>
        </mxCell>
        <mxCell id="NoFoULBmx6jZTGomRACd-137" value="" style="curved=1;endArrow=classic;html=1;rounded=0;fontSize=9;entryX=0;entryY=0;entryDx=0;entryDy=0;" parent="1" target="NoFoULBmx6jZTGomRACd-89" edge="1">
          <mxGeometry width="50" height="50" relative="1" as="geometry">
            <mxPoint x="480" y="290" as="sourcePoint" />
            <mxPoint x="530" y="240" as="targetPoint" />
            <Array as="points">
              <mxPoint x="500" y="250" />
              <mxPoint x="520" y="230" />
            </Array>
          </mxGeometry>
        </mxCell>
        <mxCell id="NoFoULBmx6jZTGomRACd-138" value="Delete Course" style="rounded=0;whiteSpace=wrap;html=1;fontSize=9;" parent="1" vertex="1">
          <mxGeometry x="425" y="355" width="60" height="30" as="geometry" />
        </mxCell>
        <mxCell id="NoFoULBmx6jZTGomRACd-140" value="" style="curved=1;endArrow=classic;html=1;rounded=0;fontSize=9;entryX=1;entryY=0.5;entryDx=0;entryDy=0;exitX=1;exitY=0;exitDx=0;exitDy=0;" parent="1" source="NoFoULBmx6jZTGomRACd-138" edge="1">
          <mxGeometry width="50" height="50" relative="1" as="geometry">
            <mxPoint x="570" y="420" as="sourcePoint" />
            <mxPoint x="570" y="270" as="targetPoint" />
            <Array as="points">
              <mxPoint x="530" y="300" />
            </Array>
          </mxGeometry>
        </mxCell>
        <mxCell id="NoFoULBmx6jZTGomRACd-142" value="" style="rounded=0;whiteSpace=wrap;html=1;fontSize=9;" parent="1" vertex="1">
          <mxGeometry x="565.62" y="405" width="180" height="100" as="geometry" />
        </mxCell>
        <mxCell id="NoFoULBmx6jZTGomRACd-143" value="" style="rounded=0;whiteSpace=wrap;html=1;fontSize=9;" parent="1" vertex="1">
          <mxGeometry x="735.62" y="412.5" width="10" height="85" as="geometry" />
        </mxCell>
        <mxCell id="NoFoULBmx6jZTGomRACd-144" value="" style="shape=process;whiteSpace=wrap;html=1;backgroundOutline=1;fontSize=9;" parent="1" vertex="1">
          <mxGeometry x="735.62" y="417.5" width="10" height="15" as="geometry" />
        </mxCell>
        <mxCell id="NoFoULBmx6jZTGomRACd-145" value="" style="triangle;whiteSpace=wrap;html=1;fontSize=9;rotation=-90;" parent="1" vertex="1">
          <mxGeometry x="735.62" y="405" width="10" height="10" as="geometry" />
        </mxCell>
        <mxCell id="NoFoULBmx6jZTGomRACd-146" value="" style="triangle;whiteSpace=wrap;html=1;fontSize=9;rotation=-90;direction=west;" parent="1" vertex="1">
          <mxGeometry x="735.62" y="497.5" width="10" height="10" as="geometry" />
        </mxCell>
        <mxCell id="NoFoULBmx6jZTGomRACd-150" value="Question" style="rounded=0;whiteSpace=wrap;html=1;fontSize=9;" parent="1" vertex="1">
          <mxGeometry x="565.62" y="405" width="54.38" height="15" as="geometry" />
        </mxCell>
        <mxCell id="NoFoULBmx6jZTGomRACd-151" value="Answer" style="rounded=0;whiteSpace=wrap;html=1;fontSize=9;" parent="1" vertex="1">
          <mxGeometry x="620" y="405" width="54.38" height="15" as="geometry" />
        </mxCell>
        <mxCell id="NoFoULBmx6jZTGomRACd-155" value="Edit" style="rounded=1;whiteSpace=wrap;html=1;fontSize=9;" parent="1" vertex="1">
          <mxGeometry x="676" y="406.5" width="25" height="12" as="geometry" />
        </mxCell>
        <mxCell id="NoFoULBmx6jZTGomRACd-156" value="Delete" style="rounded=1;whiteSpace=wrap;html=1;fontSize=9;" parent="1" vertex="1">
          <mxGeometry x="705" y="406.5" width="25" height="12" as="geometry" />
        </mxCell>
        <mxCell id="NoFoULBmx6jZTGomRACd-165" value="Question" style="rounded=0;whiteSpace=wrap;html=1;fontSize=9;" parent="1" vertex="1">
          <mxGeometry x="565.62" y="420" width="54.38" height="15" as="geometry" />
        </mxCell>
        <mxCell id="NoFoULBmx6jZTGomRACd-166" value="Answer" style="rounded=0;whiteSpace=wrap;html=1;fontSize=9;" parent="1" vertex="1">
          <mxGeometry x="620" y="420" width="54.38" height="15" as="geometry" />
        </mxCell>
        <mxCell id="NoFoULBmx6jZTGomRACd-167" value="Edit" style="rounded=1;whiteSpace=wrap;html=1;fontSize=9;" parent="1" vertex="1">
          <mxGeometry x="676" y="421.5" width="25" height="12" as="geometry" />
        </mxCell>
        <mxCell id="NoFoULBmx6jZTGomRACd-168" value="Delete" style="rounded=1;whiteSpace=wrap;html=1;fontSize=9;" parent="1" vertex="1">
          <mxGeometry x="705" y="421.5" width="25" height="12" as="geometry" />
        </mxCell>
        <mxCell id="NoFoULBmx6jZTGomRACd-169" value="Question" style="rounded=0;whiteSpace=wrap;html=1;fontSize=9;" parent="1" vertex="1">
          <mxGeometry x="565.62" y="435" width="54.38" height="15" as="geometry" />
        </mxCell>
        <mxCell id="NoFoULBmx6jZTGomRACd-170" value="Answer" style="rounded=0;whiteSpace=wrap;html=1;fontSize=9;" parent="1" vertex="1">
          <mxGeometry x="620" y="435" width="54.38" height="15" as="geometry" />
        </mxCell>
        <mxCell id="NoFoULBmx6jZTGomRACd-171" value="Edit" style="rounded=1;whiteSpace=wrap;html=1;fontSize=9;" parent="1" vertex="1">
          <mxGeometry x="676" y="436.5" width="25" height="12" as="geometry" />
        </mxCell>
        <mxCell id="NoFoULBmx6jZTGomRACd-172" value="Delete" style="rounded=1;whiteSpace=wrap;html=1;fontSize=9;" parent="1" vertex="1">
          <mxGeometry x="705" y="436.5" width="25" height="12" as="geometry" />
        </mxCell>
        <mxCell id="NoFoULBmx6jZTGomRACd-173" value="Question" style="rounded=0;whiteSpace=wrap;html=1;fontSize=9;" parent="1" vertex="1">
          <mxGeometry x="565.62" y="450" width="54.38" height="15" as="geometry" />
        </mxCell>
        <mxCell id="NoFoULBmx6jZTGomRACd-174" value="Answer" style="rounded=0;whiteSpace=wrap;html=1;fontSize=9;" parent="1" vertex="1">
          <mxGeometry x="620" y="450" width="54.38" height="15" as="geometry" />
        </mxCell>
        <mxCell id="NoFoULBmx6jZTGomRACd-175" value="Edit" style="rounded=1;whiteSpace=wrap;html=1;fontSize=9;" parent="1" vertex="1">
          <mxGeometry x="676" y="451.5" width="25" height="12" as="geometry" />
        </mxCell>
        <mxCell id="NoFoULBmx6jZTGomRACd-176" value="Delete" style="rounded=1;whiteSpace=wrap;html=1;fontSize=9;" parent="1" vertex="1">
          <mxGeometry x="705" y="451.5" width="25" height="12" as="geometry" />
        </mxCell>
        <mxCell id="NoFoULBmx6jZTGomRACd-177" value="Question" style="rounded=0;whiteSpace=wrap;html=1;fontSize=9;" parent="1" vertex="1">
          <mxGeometry x="565.62" y="465" width="54.38" height="15" as="geometry" />
        </mxCell>
        <mxCell id="NoFoULBmx6jZTGomRACd-178" value="Answer" style="rounded=0;whiteSpace=wrap;html=1;fontSize=9;" parent="1" vertex="1">
          <mxGeometry x="620" y="465" width="54.38" height="15" as="geometry" />
        </mxCell>
        <mxCell id="NoFoULBmx6jZTGomRACd-179" value="Edit" style="rounded=1;whiteSpace=wrap;html=1;fontSize=9;" parent="1" vertex="1">
          <mxGeometry x="676" y="466.5" width="25" height="12" as="geometry" />
        </mxCell>
        <mxCell id="NoFoULBmx6jZTGomRACd-180" value="Delete" style="rounded=1;whiteSpace=wrap;html=1;fontSize=9;" parent="1" vertex="1">
          <mxGeometry x="705" y="466.5" width="25" height="12" as="geometry" />
        </mxCell>
        <mxCell id="NoFoULBmx6jZTGomRACd-181" value="Question" style="rounded=0;whiteSpace=wrap;html=1;fontSize=9;" parent="1" vertex="1">
          <mxGeometry x="565.62" y="480" width="54.38" height="15" as="geometry" />
        </mxCell>
        <mxCell id="NoFoULBmx6jZTGomRACd-182" value="Answer" style="rounded=0;whiteSpace=wrap;html=1;fontSize=9;" parent="1" vertex="1">
          <mxGeometry x="620" y="480" width="54.38" height="15" as="geometry" />
        </mxCell>
        <mxCell id="NoFoULBmx6jZTGomRACd-183" value="Edit" style="rounded=1;whiteSpace=wrap;html=1;fontSize=9;" parent="1" vertex="1">
          <mxGeometry x="676" y="481.5" width="25" height="12" as="geometry" />
        </mxCell>
        <mxCell id="NoFoULBmx6jZTGomRACd-184" value="Delete" style="rounded=1;whiteSpace=wrap;html=1;fontSize=9;" parent="1" vertex="1">
          <mxGeometry x="705" y="481.5" width="25" height="12" as="geometry" />
        </mxCell>
        <mxCell id="NoFoULBmx6jZTGomRACd-185" value="Add" style="rounded=1;whiteSpace=wrap;html=1;fontSize=9;" parent="1" vertex="1">
          <mxGeometry x="570" y="377.5" width="40" height="15" as="geometry" />
        </mxCell>
        <mxCell id="NoFoULBmx6jZTGomRACd-186" value="&amp;nbsp;Course Name" style="text;html=1;strokeColor=none;fillColor=none;align=center;verticalAlign=middle;whiteSpace=wrap;rounded=0;fontSize=12;" parent="1" vertex="1">
          <mxGeometry x="598" y="340" width="125" height="30" as="geometry" />
        </mxCell>
        <mxCell id="NoFoULBmx6jZTGomRACd-188" value="Back" style="rounded=1;whiteSpace=wrap;html=1;fontSize=9;" parent="1" vertex="1">
          <mxGeometry x="562" y="337.5" width="36" height="15" as="geometry" />
        </mxCell>
        <mxCell id="NoFoULBmx6jZTGomRACd-189" value="" style="endArrow=classic;html=1;rounded=0;fontSize=9;entryX=0.108;entryY=0.995;entryDx=0;entryDy=0;entryPerimeter=0;exitX=0.25;exitY=0;exitDx=0;exitDy=0;" parent="1" source="NoFoULBmx6jZTGomRACd-188" target="NoFoULBmx6jZTGomRACd-45" edge="1">
          <mxGeometry width="50" height="50" relative="1" as="geometry">
            <mxPoint x="580" y="330" as="sourcePoint" />
            <mxPoint x="610" y="290" as="targetPoint" />
          </mxGeometry>
        </mxCell>
        <mxCell id="NoFoULBmx6jZTGomRACd-190" value="Create Question" style="rounded=0;whiteSpace=wrap;html=1;fontSize=9;" parent="1" vertex="1">
          <mxGeometry x="425" y="391.5" width="60" height="30" as="geometry" />
        </mxCell>
        <mxCell id="NoFoULBmx6jZTGomRACd-191" value="Delete Question" style="rounded=0;whiteSpace=wrap;html=1;fontSize=9;" parent="1" vertex="1">
          <mxGeometry x="425" y="463.5" width="60" height="30" as="geometry" />
        </mxCell>
        <mxCell id="NoFoULBmx6jZTGomRACd-192" value="Update Course" style="rounded=0;whiteSpace=wrap;html=1;fontSize=9;" parent="1" vertex="1">
          <mxGeometry x="425" y="427.5" width="60" height="30" as="geometry" />
        </mxCell>
        <mxCell id="NoFoULBmx6jZTGomRACd-193" value="" style="endArrow=classic;html=1;rounded=0;fontSize=9;entryX=1;entryY=0.25;entryDx=0;entryDy=0;exitX=0;exitY=0;exitDx=0;exitDy=0;" parent="1" source="NoFoULBmx6jZTGomRACd-185" target="NoFoULBmx6jZTGomRACd-190" edge="1">
          <mxGeometry width="50" height="50" relative="1" as="geometry">
            <mxPoint x="590" y="350.0000000000002" as="sourcePoint" />
            <mxPoint x="540" y="400.0000000000002" as="targetPoint" />
          </mxGeometry>
        </mxCell>
        <mxCell id="NoFoULBmx6jZTGomRACd-194" value="" style="endArrow=classic;html=1;rounded=0;fontSize=9;exitX=1;exitY=0.5;exitDx=0;exitDy=0;" parent="1" source="NoFoULBmx6jZTGomRACd-190" edge="1">
          <mxGeometry width="50" height="50" relative="1" as="geometry">
            <mxPoint x="495" y="395.0000000000001" as="sourcePoint" />
            <mxPoint x="570" y="409" as="targetPoint" />
          </mxGeometry>
        </mxCell>
        <mxCell id="NoFoULBmx6jZTGomRACd-195" value="" style="curved=1;endArrow=classic;html=1;rounded=0;fontSize=9;entryX=1;entryY=0.25;entryDx=0;entryDy=0;exitX=0;exitY=0.25;exitDx=0;exitDy=0;" parent="1" source="NoFoULBmx6jZTGomRACd-155" target="NoFoULBmx6jZTGomRACd-192" edge="1">
          <mxGeometry width="50" height="50" relative="1" as="geometry">
            <mxPoint x="790" y="330.0000000000002" as="sourcePoint" />
            <mxPoint x="740" y="380.0000000000002" as="targetPoint" />
            <Array as="points">
              <mxPoint x="610" y="430" />
            </Array>
          </mxGeometry>
        </mxCell>
        <mxCell id="NoFoULBmx6jZTGomRACd-196" value="" style="endArrow=classic;html=1;rounded=0;fontSize=9;exitX=1;exitY=0.5;exitDx=0;exitDy=0;" parent="1" edge="1">
          <mxGeometry width="50" height="50" relative="1" as="geometry">
            <mxPoint x="485" y="441.25" as="sourcePoint" />
            <mxPoint x="570" y="443.75" as="targetPoint" />
          </mxGeometry>
        </mxCell>
        <mxCell id="NoFoULBmx6jZTGomRACd-197" value="" style="curved=1;endArrow=classic;html=1;rounded=0;fontSize=9;exitX=0;exitY=0.75;exitDx=0;exitDy=0;" parent="1" source="NoFoULBmx6jZTGomRACd-156" edge="1">
          <mxGeometry width="50" height="50" relative="1" as="geometry">
            <mxPoint x="679" y="444.75" as="sourcePoint" />
            <mxPoint x="480" y="470" as="targetPoint" />
            <Array as="points">
              <mxPoint x="613" y="465.25" />
            </Array>
          </mxGeometry>
        </mxCell>
        <mxCell id="NoFoULBmx6jZTGomRACd-198" value="" style="endArrow=classic;html=1;rounded=0;fontSize=9;exitX=1;exitY=0.5;exitDx=0;exitDy=0;" parent="1" edge="1">
          <mxGeometry width="50" height="50" relative="1" as="geometry">
            <mxPoint x="484" y="482.5000000000001" as="sourcePoint" />
            <mxPoint x="569" y="485.0000000000001" as="targetPoint" />
          </mxGeometry>
        </mxCell>
        <mxCell id="wTj7l6FUuGy4CjW5davf-2" value="New Question" style="rounded=1;whiteSpace=wrap;html=1;fontSize=9;" vertex="1" parent="1">
          <mxGeometry x="612" y="362.5" width="98" height="15" as="geometry" />
        </mxCell>
        <mxCell id="wTj7l6FUuGy4CjW5davf-4" value="New&amp;nbsp; Answer" style="rounded=1;whiteSpace=wrap;html=1;fontSize=9;" vertex="1" parent="1">
          <mxGeometry x="610.99" y="377.5" width="98" height="15" as="geometry" />
        </mxCell>
        <mxCell id="wTj7l6FUuGy4CjW5davf-5" value="New Course" style="rounded=1;whiteSpace=wrap;html=1;fontSize=9;" vertex="1" parent="1">
          <mxGeometry x="630.62" y="150" width="109.38" height="15" as="geometry" />
        </mxCell>
        <mxCell id="wTj7l6FUuGy4CjW5davf-7" value="" style="curved=1;endArrow=classic;html=1;rounded=0;fontSize=9;" edge="1" parent="1">
          <mxGeometry width="50" height="50" relative="1" as="geometry">
            <mxPoint x="575.62" y="600" as="sourcePoint" />
            <mxPoint x="570" y="530" as="targetPoint" />
            <Array as="points">
              <mxPoint x="585.62" y="570" />
            </Array>
          </mxGeometry>
        </mxCell>
      </root>
    </mxGraphModel>
  </diagram>
</mxfile>
